<svg width="827" height="1304" viewBox="0 0 827 1304" fill="none" xmlns="http://www.w3.org/2000/svg">
<path d="M3.57131 1157.39C17.04 1203.1 59.3674 1239.09 129.721 1264.24C197.758 1288.59 295.474 1302.29 407.493 1303.3C428.146 1303.49 448.631 1303.18 456.226 1302.42C463.493 1301.88 480.998 1300.56 495.035 1299.56C656.716 1288.3 769.163 1246.88 808.798 1183.88C821.246 1164.28 826.272 1146.86 826.145 1123.86C825.926 1084.08 812.726 1057.19 755.801 980.384C721.18 933.772 707.506 910.752 697.936 883.029C694.072 871.451 693.557 867.995 693.454 849.274C693.51 829.434 693.828 827.194 700.306 803.452C711.644 762.183 710.866 740.923 696.68 714.955C671.479 668.801 607.407 644.43 492.38 637.229C481.637 636.576 472.215 635.61 471.386 635.106C470.06 634.299 467.997 589.645 464.081 478.665C461.721 410.103 459.185 339.507 456.061 252.33L453.911 191.804L462.429 178.53C469.471 167.402 471.103 163.73 472.052 155.992C472.685 151.003 473.816 146.317 474.473 145.601C476.608 143.351 481.57 144.341 486.05 147.877C489.866 150.807 491.522 151.408 496.974 151.378C501.93 151.351 504.074 150.729 506.706 148.679C511.805 144.581 512.605 139.795 509.111 135.338C506.118 131.793 505.455 131.491 497.854 131.228C490.418 130.964 489.263 131.275 485.809 134.041C481.532 137.423 476.415 138.163 474.749 135.73C473.915 134.209 476.388 103.367 477.85 98.7802C478.825 95.8243 487.414 95.5735 490.073 98.4077C494.065 103.168 501.178 104.756 509.098 102.881C515.862 101.216 518.619 91.7389 513.962 86.2704C509.971 81.5104 498.731 80.4532 493.631 84.3475C487.873 88.7542 486.224 89.4755 482.753 89.1893C479.448 88.9023 479.28 88.4963 479.876 76.6907C480.169 69.974 480.782 61.2207 481.422 57.3509C482.376 50.6306 482.539 50.2227 486.667 49.8948C489.97 49.6731 491.956 50.2726 494.778 52.5972C497.932 55.3269 499.256 55.7266 506.359 55.6875C513.298 55.6493 514.948 55.2332 517.249 52.9822C521.193 49.2977 520.823 41.9742 516.673 38.5378C514.184 36.5166 511.702 35.7163 506.579 35.541C500.63 35.2686 499.476 35.6819 495.528 38.8577C490.758 42.7502 485.477 43.695 483.644 40.958C483.144 40.1468 483.594 31.8013 484.534 22.5375C486.424 5.73941 486.424 5.73941 482.776 3.31765L479.128 0.895894L406.932 1.29343L334.737 1.69097L331.116 4.15276L327.329 6.61545L329.405 23.4935C330.612 32.7455 331.153 40.9837 330.497 41.903C328.86 44.5574 323.238 43.6726 318.591 39.9337C314.94 37.0033 313.12 36.4028 307.833 36.4319C296.103 36.4965 289.872 44.8738 296.026 52.4707C298.854 56.0161 299.517 56.3177 307.118 56.5811C314.554 56.8454 315.709 56.5338 319.163 53.7677C324.098 49.8743 330.704 49.4309 332.044 52.7811C333.386 56.3347 336.371 88.4692 335.385 89.3904C333.248 91.437 326.632 90.049 322.484 86.7143C318.668 83.7848 317.012 83.1834 311.56 83.2134C302.639 83.2626 298.363 86.7454 298.404 94.1724C298.441 100.989 303.252 104.625 312.339 104.575C316.965 104.55 318.943 103.827 322.562 100.958C327.825 96.554 335.916 95.7973 337.093 99.5553C338.27 103.313 341.09 135.347 340.271 136.674C338.962 139.022 333.671 138.135 329.523 134.902C326.038 132.174 324.88 131.875 317.447 132.221C309.849 132.568 309.19 132.877 306.401 136.454C300.331 144.118 306.655 152.426 318.384 152.361C323.671 152.332 325.485 151.712 329.268 148.639C337.821 141.673 342.962 145.206 343.201 158.635C343.385 162.093 346.227 168.08 352.726 178.32L362.059 193.022L360.557 250.21C358.771 315.946 357.039 391.551 355.05 480.283C352.371 593.945 350.945 634.854 349.463 635.777C348.64 636.291 338.072 637.468 325.851 638.248C225.772 645.514 161.297 667.845 133.25 705.034C112.422 732.823 109.104 760.414 121.24 804.097C131.69 841.685 132.914 853.887 128.402 874.566C121.632 905.33 108.056 930.128 65.5893 988.865C22.4675 1048.62 9.70678 1071.48 2.44051 1102.05C-0.947616 1116.82 -0.470422 1143.47 3.57131 1157.39Z" fill="#3B3C2F"/>
</svg>
